<?xml version="1.0" encoding="UTF-8"?>
<svg id="Layer_1" xmlns="http://www.w3.org/2000/svg" version="1.1" viewBox="0 0 95 95">
  <!-- Generator: Adobe Illustrator 30.2.1, SVG Export Plug-In . SVG Version: 2.1.1 Build 1)  -->
  <defs>
    <style>
      .st0 {
        fill: #fff;
      }

      .st1 {
        fill: #fb4f33;
      }

      .st2 {
        fill: #cad6fb;
      }

      .st3 {
        fill: none;
        stroke: #3148c8;
        stroke-linecap: round;
        stroke-linejoin: round;
        stroke-width: 1.66px;
      }
    </style>
  </defs>
  <path class="st2" d="M16.43,74.78c-2.3-.23-4.5-1.31-6.09-3.16-3.64-4.21-2.42-10.78,2.12-14l39.42-27.94c4.41-3.12,10.6-1.86,13.4,2.9,2.47,4.23.95,9.69-3.05,12.53l-39.5,28c-1.9,1.35-4.14,1.88-6.29,1.66Z"/>
  <path class="st2" d="M52.34,86.6c-1.37-.14-2.69-.78-3.64-1.89-2.18-2.52-1.45-6.44,1.27-8.36l23.54-16.69c2.63-1.86,6.33-1.11,8,1.73,1.48,2.52.57,5.79-1.82,7.48l-23.59,16.72c-1.14.81-2.47,1.12-3.76,1Z"/>
  <path class="st2" d="M12.32,35.99c-1.37-.14-2.69-.78-3.64-1.89-2.18-2.52-1.45-6.44,1.27-8.36l23.54-16.69c2.63-1.86,6.33-1.11,8,1.73,1.48,2.52.57,5.79-1.82,7.48l-23.59,16.72c-1.14.81-2.47,1.12-3.76,1Z"/>
  <g>
    <path class="st1" d="M64.36,22.21c-.3,0-.6-.12-.81-.37-.39-.45-.34-1.12.1-1.51l4.25-3.7c.45-.39,1.12-.34,1.51.1.39.45.34,1.12-.1,1.51l-4.25,3.7c-.2.18-.45.26-.7.26Z"/>
    <path class="st1" d="M70.27,32.59c-.13,0-.26-.02-.39-.08l-5.25-2.08c-.55-.22-.82-.84-.6-1.39.22-.55.84-.82,1.39-.6l5.25,2.08c.55.22.82.84.6,1.39-.17.42-.57.68-1,.68Z"/>
    <path class="st1" d="M65.37,26.19c-.56,0-1.02-.43-1.07-.99-.05-.59.4-1.1.99-1.15l5.63-.42c.59-.05,1.1.4,1.15.99.05.59-.4,1.1-.99,1.15l-5.63.42s-.05,0-.08,0Z"/>
    <g>
      <path class="st0" d="M20.32,40.72c.44.24.71.72.68,1.23-.09,1.52.28,3.14,1.07,4.63.07.13.14.25.21.38.66,1.14,2.39.75,2.57-.56.14-.98.41-1.95.81-2.86.13-.29.44-.44.75-.35,2.91.82,5.99,1.23,9.15,1.23,13.58,0,24.62-7.72,24.62-17.21s-11.05-17.21-24.62-17.21-24.62,7.72-24.62,17.21c0,5.31,3.42,10.22,9.39,13.51Z"/>
      <path class="st2" d="M57.4,19.27c-.32-.43-1.01-.12-.88.4.25,1.04.38,2.12.38,3.21,0,10.17-11.28,18.41-25.2,18.41-4.59,0-8.89-.9-12.6-2.46-.56-.24-.96.54-.46.88.57.37,1.16.73,1.79,1.07.38.21.61.62.58,1.05-.12,1.55.25,3.23,1.06,4.75.16.3.33.6.53.89.62.95,2.09.57,2.2-.57.11-1.15.4-2.29.87-3.36.13-.29.44-.44.75-.35,2.91.82,5.99,1.23,9.15,1.23,13.58,0,24.62-7.72,24.62-17.21,0-2.86-1-5.56-2.78-7.93Z"/>
      <path class="st3" d="M21.2,21h29.22"/>
      <path class="st3" d="M21.2,26.7h29.22"/>
      <path class="st3" d="M21.2,32.4h29.22"/>
      <path class="st3" d="M20.35,40.75c.43.24.7.71.67,1.2-.09,1.52.28,3.16,1.07,4.64.08.15.16.3.25.44.66,1.11,2.35.73,2.52-.55.13-1.01.4-2,.81-2.94.13-.29.44-.44.75-.35,2.91.81,5.99,1.23,9.16,1.22,13.58-.02,24.61-7.75,24.6-17.24-.01-9.49-11.07-17.19-24.65-17.18-13.58.02-24.61,7.75-24.6,17.24,0,5.31,3.44,10.22,9.42,13.5Z"/>
    </g>
  </g>
  <g>
    <path class="st1" d="M29.94,58.95l-4.25-3.7c-.45-.39-.49-1.06-.1-1.51.39-.45,1.06-.49,1.51-.1l4.25,3.7c.45.39.49,1.06.1,1.51-.21.24-.51.37-.81.37-.25,0-.5-.09-.7-.26Z"/>
    <path class="st1" d="M23.73,68.92c-.22-.55.05-1.17.6-1.39l5.25-2.08c.55-.22,1.17.05,1.39.6.22.55-.05,1.17-.6,1.39l-5.25,2.08c-.13.05-.26.08-.39.08-.43,0-.83-.26-1-.68Z"/>
    <path class="st1" d="M29.55,63.19l-5.63-.42c-.59-.05-1.03-.56-.99-1.15.05-.59.56-1.03,1.15-.99l5.63.42c.59.05,1.03.56.99,1.15-.04.56-.51.99-1.07.99-.03,0-.05,0-.08,0Z"/>
    <g>
      <path class="st0" d="M84.07,64.21c0-9.49-11.05-17.21-24.62-17.21s-24.62,7.72-24.62,17.21c0,9.49,11.05,17.21,24.62,17.21,3.16,0,6.24-.41,9.15-1.23.3-.08.62.07.75.35.4.91.67,1.88.81,2.86.18,1.31,1.91,1.7,2.57.56.07-.13.14-.25.21-.38.78-1.48,1.16-3.11,1.07-4.63-.03-.51.23-.98.68-1.23,5.97-3.29,9.39-8.2,9.39-13.51Z"/>
      <path class="st2" d="M34.82,64.21c0,9.49,11.05,17.21,24.62,17.21,3.16,0,6.24-.41,9.15-1.23.3-.08.62.07.75.35.47,1.07.76,2.21.87,3.36.11,1.13,1.57,1.52,2.2.57.19-.29.37-.59.53-.89.81-1.52,1.18-3.2,1.06-4.75-.03-.43.2-.84.58-1.05.62-.34,1.22-.7,1.79-1.07.5-.33.1-1.11-.46-.88-3.71,1.57-8.01,2.46-12.6,2.46-13.92,0-25.2-8.24-25.2-18.41,0-1.09.13-2.17.38-3.21.13-.52-.56-.84-.88-.4-1.77,2.37-2.78,5.08-2.78,7.93Z"/>
      <path class="st3" d="M44.58,58h29.22"/>
      <path class="st3" d="M44.58,63.7h29.22"/>
      <path class="st3" d="M44.58,69.4h29.22"/>
      <path class="st3" d="M84.07,64.25c.01-9.49-11.02-17.23-24.6-17.24-13.58-.02-24.63,7.69-24.65,17.18-.01,9.49,11.02,17.23,24.6,17.24,3.16,0,6.24-.41,9.16-1.22.3-.08.62.07.75.35.41.94.68,1.93.81,2.94.17,1.28,1.86,1.66,2.52.55.09-.15.17-.29.25-.44.79-1.49,1.17-3.12,1.07-4.64-.03-.5.23-.96.67-1.2,5.98-3.29,9.41-8.19,9.42-13.5Z"/>
    </g>
  </g>
</svg>